<svg xmlns="http://www.w3.org/2000/svg" width="213" height="34" viewBox="0 0 213 34" fill="none">
<path d="M107.658 4.32483H93.8945V5.71203H100.028V23.7592H101.524V5.71203H107.658V4.32483Z" fill="white"/>
<path d="M119.857 22.644C115.042 22.644 111.275 18.8088 111.275 14.0352C111.275 9.26156 115.042 5.43996 119.857 5.43996C124.671 5.43996 128.438 9.27516 128.438 14.0352C128.438 18.8088 124.671 22.644 119.857 22.644ZM119.857 24.0584C125.487 24.0584 129.921 19.584 129.921 14.0352C129.921 8.48636 125.487 4.01196 119.857 4.01196C114.226 4.01196 109.793 8.48636 109.793 14.0352C109.793 19.584 114.226 24.0584 119.857 24.0584Z" fill="white"/>
<path d="M142.786 22.372H135.85V14.5384H142.786C144.908 14.5384 146.635 16.2928 146.635 18.4552C146.635 20.6176 144.908 22.372 142.786 22.372ZM142.147 5.71198C144.146 5.71198 145.792 7.37118 145.792 9.42478C145.792 11.4784 144.146 13.1376 142.147 13.1376H135.85V5.71198H142.147ZM144.758 13.6816C146.268 12.8792 147.261 11.3288 147.261 9.43838C147.261 6.63678 144.976 4.33838 142.134 4.33838H134.368V23.7592H142.786C145.738 23.7592 148.104 21.4064 148.104 18.4552C148.104 16.2384 146.717 14.4296 144.758 13.6816Z" fill="white"/>
<path d="M161.514 22.644C156.699 22.644 152.932 18.8088 152.932 14.0352C152.932 9.26156 156.699 5.43996 161.514 5.43996C166.342 5.43996 170.095 9.27516 170.095 14.0352C170.095 18.8088 166.328 22.644 161.514 22.644ZM161.514 24.0584C167.144 24.0584 171.578 19.584 171.578 14.0352C171.578 8.48636 167.144 4.01196 161.514 4.01196C155.883 4.01196 151.45 8.48636 151.45 14.0352C151.45 19.584 155.883 24.0584 161.514 24.0584Z" fill="white"/>
<path d="M185.096 22.644C180.282 22.644 176.514 18.8088 176.514 14.0352C176.514 9.26156 180.282 5.43996 185.096 5.43996C189.91 5.43996 193.678 9.27516 193.678 14.0352C193.678 18.8088 189.91 22.644 185.096 22.644ZM185.096 24.0584C190.726 24.0584 195.16 19.584 195.16 14.0352C195.16 8.48636 190.726 4.01196 185.096 4.01196C179.466 4.01196 175.032 8.48636 175.032 14.0352C175.032 19.584 179.466 24.0584 185.096 24.0584Z" fill="white"/>
<path d="M212.976 23.7592L202.83 13.7632L212.69 4.32483H210.718L201.212 13.3688V4.32483H199.73V23.7592H201.212V14.1848L210.99 23.7592H212.976Z" fill="white"/>
<path d="M49.5584 24.0584C53.856 24.0584 56.7256 21.3656 56.7256 17.2584V4.32483H55.2432V17.2584C55.2432 20.4272 53.2576 22.644 49.5584 22.644C45.8864 22.644 43.9008 20.4272 43.9008 17.2584V4.32483H42.432V17.2584C42.432 21.3656 45.2744 24.0584 49.5584 24.0584Z" fill="white"/>
<path d="M68.0952 24.0584C71.9712 24.0584 74.5008 21.9504 74.5008 18.7272C74.5008 15.368 71.4952 14.28 68.0408 13.1512C65.2528 12.24 63.2808 11.5192 63.2808 9.18003C63.2808 7.01763 64.9808 5.44003 67.6872 5.44003C70.4752 5.44003 71.9712 7.04483 72.7056 8.79923L73.9568 8.10563C73.0048 5.86163 70.8968 4.02563 67.6872 4.02563C64.3688 4.02563 61.7848 6.05203 61.7848 9.24803C61.7848 12.6344 64.7088 13.5456 67.9728 14.6064C70.9512 15.5448 73.0184 16.4424 73.0184 18.768C73.0184 20.9848 71.3728 22.6576 68.1088 22.6576C64.8992 22.6576 62.9272 21.08 62.2608 18.7408L60.9824 19.4888C61.8528 22.2224 64.4368 24.0584 68.0952 24.0584Z" fill="white"/>
<path d="M80.308 22.372V14.6472H89.216V13.26H80.308V5.71203H89.9232V4.32483H78.8256V23.7592H90.0592V22.372H80.308Z" fill="white"/>
<path d="M22.4672 0H5.4672C2.448 0 0 2.448 0 5.4672V22.6168C0 25.636 2.448 28.084 5.4672 28.084H9.9008V26.656H5.4672C3.2368 26.656 1.428 24.8472 1.428 22.6168V5.4672C1.428 3.2368 3.2368 1.428 5.4672 1.428H22.4808C24.7112 1.428 26.52 3.2368 26.52 5.4672V22.6168C26.52 24.8472 24.7112 26.656 22.4808 26.656H18.496C17.0408 26.656 15.6536 27.2272 14.6336 28.2608L9.9008 32.9936L10.9072 34L15.64 29.2672C16.4016 28.5056 17.4216 28.084 18.496 28.084H22.4672C25.4864 28.084 27.9344 25.636 27.9344 22.6168V5.4672C27.9344 2.448 25.4864 0 22.4672 0Z" fill="white"/>
<path fill-rule="evenodd" clip-rule="evenodd" d="M17.6664 19.0808C17.6664 19.9104 16.9864 20.5904 16.1568 20.5904C15.3272 20.5904 14.6472 19.9104 14.6472 19.0808C14.6472 18.2512 15.3272 17.5712 16.1568 17.5712C16.9864 17.5712 17.6664 18.2512 17.6664 19.0808ZM11.6144 20.5904C12.444 20.5904 13.124 19.9104 13.124 19.0808C13.124 18.2512 12.444 17.5712 11.6144 17.5712C10.7848 17.5712 10.1048 18.2512 10.1048 19.0808C10.1048 19.9104 10.7712 20.5904 11.6144 20.5904ZM7.07198 20.5904C7.90158 20.5904 8.58158 19.9104 8.58158 19.0808C8.58158 18.2512 7.90158 17.5712 7.07198 17.5712C6.24238 17.5712 5.56238 18.2512 5.56238 19.0808C5.56238 19.9104 6.24238 20.5904 7.07198 20.5904ZM20.6856 15.5448C21.5152 15.5448 22.1952 14.8648 22.1952 14.0352C22.1952 13.2056 21.5152 12.5256 20.6856 12.5256C19.856 12.5256 19.176 13.2056 19.176 14.0352C19.176 14.8784 19.856 15.5448 20.6856 15.5448ZM13.124 14.0352C13.124 14.8784 12.444 15.5448 11.6144 15.5448C10.7848 15.5448 10.1048 14.8648 10.1048 14.0352C10.1048 13.2056 10.7848 12.5256 11.6144 12.5256C12.444 12.5256 13.124 13.2056 13.124 14.0352ZM8.58158 14.0352C8.58158 14.8648 7.90158 15.5448 7.07198 15.5448C6.24238 15.5448 5.56238 14.8648 5.56238 14.0352C5.56238 13.2056 6.24238 12.5256 7.07198 12.5256C7.90158 12.5256 8.58158 13.2056 8.58158 14.0352ZM20.6856 10.5128C21.5152 10.5128 22.1952 9.83278 22.1952 9.00318C22.1952 8.17358 21.5152 7.49358 20.6856 7.49358C19.856 7.47998 19.176 8.15998 19.176 8.98958C19.176 9.83278 19.856 10.5128 20.6856 10.5128ZM13.124 8.98958C13.124 9.81918 12.444 10.4992 11.6144 10.4992C10.7848 10.4992 10.1048 9.81918 10.1048 8.98958C10.1048 8.15998 10.7712 7.47998 11.6144 7.47998C12.444 7.47998 13.124 8.15998 13.124 8.98958ZM17.6664 8.98958C17.6664 9.81918 16.9864 10.4992 16.1568 10.4992C15.3272 10.4992 14.6472 9.81918 14.6472 8.98958C14.6472 8.15998 15.3272 7.47998 16.1568 7.47998C16.9864 7.47998 17.6664 8.15998 17.6664 8.98958Z" fill="white"/>
<path d="M17.6663 14.0351C17.6663 14.8647 16.9863 15.5447 16.1567 15.5447C15.3271 15.5447 14.6471 14.8647 14.6471 14.0351C14.6471 13.2055 15.3271 12.5255 16.1567 12.5255C16.9863 12.5255 17.6663 13.2055 17.6663 14.0351Z" fill="#FFBE1E"/>
</svg>